<svg width="200" height="160" viewBox="0 0 200 160" fill="none" xmlns="http://www.w3.org/2000/svg">
  <rect width="200" height="160" fill="#F9FAFB"/>
  
  <!-- Search magnifying glass -->
  <circle cx="80" cy="70" r="25" stroke="#D1D5DB" stroke-width="3" fill="none"/>
  <path d="m100 90 15 15" stroke="#D1D5DB" stroke-width="3" stroke-linecap="round"/>
  
  <!-- Question mark inside search -->
  <path d="M75 65c0-3 2-5 5-5s5 2 5 5c0 2-1 3-2 4l-1 2h-2v-1c0-1 1-2 2-3 1-1 1-1 1-2 0-1-1-2-2-2s-2 1-2 2h-2z" fill="#9CA3AF"/>
  <circle cx="80" cy="77" r="1" fill="#9CA3AF"/>
  
  <!-- Document lines suggesting empty results -->
  <rect x="120" y="50" width="30" height="2" rx="1" fill="#E5E7EB"/>
  <rect x="120" y="58" width="25" height="2" rx="1" fill="#E5E7EB"/>
  <rect x="120" y="66" width="35" height="2" rx="1" fill="#E5E7EB"/>
  <rect x="120" y="74" width="20" height="2" rx="1" fill="#E5E7EB"/>
  
  <!-- X mark suggesting no results -->
  <path d="M140 85 L150 95 M150 85 L140 95" stroke="#D1D5DB" stroke-width="2" stroke-linecap="round"/>
  
  <text x="100" y="130" text-anchor="middle" fill="#6B7280" font-family="system-ui" font-size="12">No search results found</text>
</svg>